<?xml version="1.0" encoding="UTF-8"?>
<!DOCTYPE svg PUBLIC "-//W3C//DTD SVG 1.1//EN" "http://www.w3.org/Graphics/SVG/1.1/DTD/svg11.dtd">
<!-- Creator: CorelDRAW -->
<svg xmlns="http://www.w3.org/2000/svg" xml:space="preserve" width="254mm" height="254mm" version="1.1" style="shape-rendering:geometricPrecision; text-rendering:geometricPrecision; image-rendering:optimizeQuality; fill-rule:evenodd; clip-rule:evenodd"
viewBox="0 0 25400 25400"
 xmlns:xlink="http://www.w3.org/1999/xlink"
 xmlns:xodm="http://www.corel.com/coreldraw/odm/2003">
 <defs>
  <style type="text/css">
   <![CDATA[
    .str0 {stroke:#F6F6F7;stroke-width:7.62;stroke-linecap:round;stroke-linejoin:round;stroke-miterlimit:22.9256}
    .fil0 {fill:#FEFEFE}
   ]]>
  </style>
 </defs>
 <g id="Layer_x0020_1">
  <metadata id="CorelCorpID_0Corel-Layer"/>
  <g id="_2092643897520">
   <path class="fil0 str0" d="M11498.72 12221c0,0 215.37,9.01 354.72,-45.05 0,0 -298.7,420.23 -96.13,872.66 202.58,452.42 630.61,588.77 630.61,588.77l3.27 -1809.7c0,0 133.96,-133.24 196.04,-384.25l101.29 -3.09 8.51 2529.66c0,0 -772.96,-17.05 -1168.43,-681.93 0,0 -314.28,-469.94 -29.88,-1067.07z"/>
   <path class="fil0 str0" d="M14020.37 12220.55l-819.67 1686.49c0,0 -250.06,65.88 -351.94,61.49l-13.89 -2538.53 92.61 0c0,0 41.68,276.69 208.39,395.27l0 1537.18 583.49 -1163.86c0,0 194.5,52.7 301.01,21.96z"/>
  </g>
 </g>
</svg>
