<?xml version="1.0" encoding="UTF-8"?>
<!DOCTYPE svg PUBLIC "-//W3C//DTD SVG 1.1//EN" "http://www.w3.org/Graphics/SVG/1.1/DTD/svg11.dtd">
<!-- Creator: CorelDRAW -->
<svg xmlns="http://www.w3.org/2000/svg" xml:space="preserve" width="12.7mm" height="12.7mm" version="1.1" style="shape-rendering:geometricPrecision; text-rendering:geometricPrecision; image-rendering:optimizeQuality; fill-rule:evenodd; clip-rule:evenodd"
viewBox="0 0 1270 1270"
 xmlns:xlink="http://www.w3.org/1999/xlink"
 xmlns:xodm="http://www.corel.com/coreldraw/odm/2003">
 <defs>
  <style type="text/css">
   <![CDATA[
    .str0 {stroke:#FEFEFE;stroke-width:7.62;stroke-linecap:round;stroke-linejoin:round;stroke-miterlimit:22.9256}
    .fil0 {fill:#FEFEFE}
   ]]>
  </style>
 </defs>
 <g id="Layer_x0020_1">
  <metadata id="CorelCorpID_0Corel-Layer"/>
  <g id="_2092652758464">
   <path class="fil0 str0" d="M57.27 395.5c0,0 103.58,4.5 170.6,-22.53 0,0 -143.66,210.12 -46.23,436.34 97.42,226.21 303.28,294.38 303.28,294.38l1.56 -904.85c0,0 66.55,-73.23 96.42,-198.74l48.21 -0.2 2.46 1270.1c0,0 -371.73,-8.52 -561.93,-340.96 0,0 -151.14,-234.97 -14.37,-533.54z"/>
   <path class="fil0 str0" d="M1270 395.27l-394.2 843.25c0,0 -120.26,33.67 -169.26,31.47l-6.68 -1269.99 44.54 0c0,0 20.05,138.34 100.22,197.63l0 768.6 280.62 -581.94c0,0 93.53,26.35 144.76,10.98z"/>
  </g>
 </g>
</svg>
